<?xml version="1.0" encoding="UTF-8" standalone="no"?>
<svg
   xmlns:dc="http://purl.org/dc/elements/1.1/"
   xmlns:cc="http://creativecommons.org/ns#"
   xmlns:rdf="http://www.w3.org/1999/02/22-rdf-syntax-ns#"
   xmlns:svg="http://www.w3.org/2000/svg"
   xmlns="http://www.w3.org/2000/svg"
   xmlns:sodipodi="http://sodipodi.sourceforge.net/DTD/sodipodi-0.dtd"
   xmlns:inkscape="http://www.inkscape.org/namespaces/inkscape"
   id="svg24"
   preserveAspectRatio="xMidYMid meet"
   viewBox="0 0 1008 828"
   height="11.5in"
   width="14in"
   version="1.0"
   sodipodi:docname="logo.svg"
   inkscape:version="0.92.2 5c3e80d, 2017-08-06">
  <sodipodi:namedview
     pagecolor="#ffffff"
     bordercolor="#666666"
     borderopacity="1"
     objecttolerance="10"
     gridtolerance="10"
     guidetolerance="10"
     inkscape:pageopacity="0"
     inkscape:pageshadow="2"
     inkscape:window-width="1082"
     inkscape:window-height="562"
     id="namedview16"
     showgrid="false"
     inkscape:zoom="0.23177389"
     inkscape:cx="592.66921"
     inkscape:cy="599.49859"
     inkscape:window-x="265"
     inkscape:window-y="12"
     inkscape:window-maximized="0"
     inkscape:current-layer="svg24" />
  <defs
     id="defs28" />
  <metadata
     id="metadata2">
Created by potrace 1.12, written by Peter Selinger 2001-2015
<rdf:RDF>
  <cc:Work
     rdf:about="">
    <dc:format>image/svg+xml</dc:format>
    <dc:type
       rdf:resource="http://purl.org/dc/dcmitype/StillImage" />
    <dc:title></dc:title>
  </cc:Work>
</rdf:RDF>
</metadata>
  <g
     style="fill:#000000;stroke:none"
     id="g22"
     transform="matrix(0.1,0,0,-0.1,-92.670012,980.9807)">
    <g
       transform="translate(414.39125,1381.0139)"
       id="g3779">
      <path
         d="m 3968,8296 c -54,-23 -190,-141 -248,-212 -32,-41 -75,-102 -94,-137 -42,-75 -103,-256 -157,-467 -43,-171 -47,-184 -94,-285 -39,-83 -83,-146 -155,-221 -68,-70 -114,-94 -182,-94 -69,0 -115,24 -154,82 -31,45 -40,82 -64,242 -7,44 -27,127 -45,185 -19,59 -37,124 -41,146 -9,54 -32,89 -106,162 -90,87 -173,143 -215,143 -32,0 -36,-4 -58,-53 -14,-33 -28,-92 -34,-153 -26,-226 -31,-255 -55,-321 -13,-37 -37,-97 -53,-133 -65,-142 -101,-288 -123,-500 -39,-370 -82,-586 -144,-717 -65,-137 -238,-369 -592,-793 -231,-278 -347,-449 -421,-624 -19,-44 -41,-94 -48,-111 -18,-41 -78,-222 -108,-325 -23,-76 -35,-122 -92,-335 -55,-207 -97,-379 -107,-440 -15,-89 -15,-284 -1,-400 7,-49 17,-135 23,-190 20,-170 43,-248 89,-289 28,-25 46,-15 74,41 55,108 85,189 118,323 12,47 44,235 69,405 65,428 237,962 367,1133 14,18 59,59 102,90 62,45 189,149 211,172 14,14 108,85 241,180 169,120 258,191 338,270 66,65 88,117 101,246 14,135 80,365 116,405 26,29 104,25 171,-8 44,-21 60,-36 85,-79 32,-57 119,-143 147,-145 59,-4 74,15 72,91 -2,82 27,148 90,204 26,24 61,46 76,49 51,10 203,-3 251,-21 70,-27 145,-86 185,-145 19,-29 89,-189 157,-359 67,-169 134,-325 151,-347 33,-47 69,-60 106,-40 38,20 50,60 57,195 3,67 10,144 15,170 5,27 17,96 25,154 9,58 21,130 26,160 32,183 41,485 21,685 -17,165 -35,271 -96,555 -54,248 -68,341 -68,440 -1,117 2,134 78,445 73,297 88,376 89,468 1,71 -1,80 -23,98 -26,22 -35,22 -73,5 z"
         id="path4"
         inkscape:connector-curvature="0" />
      <path
         d="m 4225,8097 c -41,-19 -52,-35 -65,-92 -12,-52 -7,-109 31,-380 35,-247 114,-494 194,-600 23,-31 214,-165 292,-205 112,-58 292,-69 1114,-70 346,0 598,-4 630,-10 98,-19 128,-76 109,-205 -19,-124 -44,-365 -91,-875 -5,-63 -17,-167 -25,-231 -41,-329 7,-495 205,-718 185,-208 225,-266 256,-375 21,-73 52,-106 98,-106 58,0 62,14 62,194 0,183 2,188 95,301 28,33 60,80 72,104 20,41 21,50 10,110 -11,63 -73,289 -126,455 -47,146 -59,241 -53,419 7,243 54,533 123,765 20,64 44,145 53,180 10,35 21,66 24,69 4,3 46,14 94,24 48,10 165,35 258,54 234,50 313,64 360,65 89,1 558,178 720,272 333,194 437,265 497,340 41,51 68,107 61,126 -17,42 -137,43 -253,1 -47,-17 -108,-39 -136,-49 -59,-21 -174,-39 -589,-91 -664,-83 -720,-84 -1015,-23 -226,47 -418,60 -660,45 -119,-7 -213,-8 -265,-2 -44,5 -134,12 -200,16 -157,9 -268,28 -407,69 -200,61 -298,76 -519,81 -149,4 -224,10 -291,25 -138,31 -164,49 -263,178 -67,87 -175,142 -294,148 -51,3 -86,0 -106,-9 z"
         id="path6"
         inkscape:connector-curvature="0" />
      <path
         d="m 5125,6561 c -33,-9 -66,-21 -74,-25 -34,-21 -41,-72 -41,-287 0,-192 -2,-219 -24,-302 -45,-170 -56,-260 -56,-467 0,-242 15,-304 92,-377 46,-44 103,-71 184,-88 38,-8 96,-22 129,-32 33,-9 82,-17 109,-17 42,-1 51,3 70,27 31,41 27,161 -8,287 -14,52 -26,117 -26,143 0,42 5,54 34,83 21,21 44,34 59,34 48,0 171,-111 205,-185 18,-38 76,-326 106,-525 8,-52 22,-144 32,-205 34,-227 111,-472 214,-680 32,-66 75,-139 95,-162 31,-37 42,-43 75,-43 52,0 141,34 193,74 65,49 71,79 52,260 -24,235 -65,409 -133,556 -37,81 -52,147 -52,225 0,56 -5,80 -26,118 -60,113 -63,207 -27,823 l 16,292 -21,106 c -12,58 -22,114 -22,123 0,28 -53,101 -96,132 -65,48 -193,84 -304,85 -103,1 -103,1 -235,-83 -62,-39 -180,-73 -237,-69 -41,3 -44,6 -84,71 -71,118 -101,135 -199,108 z"
         id="path8"
         inkscape:connector-curvature="0" />
      <path
         d="m 7552,6375 c -46,-23 -92,-51 -102,-61 -27,-27 -112,-201 -240,-490 -128,-286 -131,-342 -22,-470 47,-57 78,-121 88,-184 22,-141 139,-186 371,-145 45,8 91,20 102,26 10,7 90,88 176,181 87,92 161,168 166,168 13,0 45,-55 69,-121 12,-31 34,-68 48,-82 48,-44 188,-78 231,-55 31,17 72,97 79,153 6,55 -13,156 -40,210 -12,24 -105,125 -232,250 -180,178 -217,221 -248,280 -20,39 -39,86 -43,105 -13,64 -55,139 -102,179 -55,49 -157,101 -192,100 -14,-1 -64,-21 -109,-44 z m 148,-338 c 0,-24 -9,-41 -30,-62 -28,-27 -30,-27 -55,-11 -29,19 -32,51 -9,84 36,52 94,45 94,-11 z"
         id="path10"
         inkscape:connector-curvature="0" />
      <path
         d="m 4550,6256 c -98,-34 -121,-49 -188,-120 -90,-97 -135,-183 -209,-399 -78,-230 -89,-267 -108,-377 -29,-168 -17,-265 49,-403 40,-84 86,-137 119,-137 60,0 110,56 197,218 61,115 75,125 136,94 49,-25 63,-41 105,-122 45,-86 135,-180 172,-180 37,0 71,38 88,97 13,49 6,100 -35,247 -9,33 -24,121 -33,195 -16,140 -15,250 6,601 11,173 5,214 -37,260 -20,22 -42,33 -81,40 -77,14 -107,12 -181,-14 z m 38,-336 c 29,-27 28,-65 -3,-95 -33,-34 -116,-32 -129,2 -6,15 16,66 42,96 20,23 63,22 90,-3 z"
         id="path12"
         inkscape:connector-curvature="0" />
      <path
         d="m 3782,4750 c -75,-48 -91,-74 -69,-117 9,-16 64,-90 123,-164 59,-73 113,-149 121,-168 30,-71 9,-508 -31,-646 -8,-27 -26,-81 -41,-120 -81,-214 -163,-492 -191,-654 -15,-89 -16,-113 -5,-190 16,-113 11,-134 -116,-471 -124,-329 -143,-395 -143,-487 0,-170 98,-329 271,-440 124,-79 149,-115 173,-243 30,-161 134,-323 217,-336 29,-5 41,-1 69,22 78,66 94,189 44,336 -25,72 -28,97 -27,188 0,77 6,124 22,175 87,280 106,420 90,660 -10,148 -9,187 5,300 35,261 51,337 94,427 36,74 98,144 139,154 61,16 98,-34 182,-246 61,-154 78,-237 91,-432 13,-216 42,-344 107,-472 49,-97 144,-229 253,-351 92,-104 138,-176 192,-305 77,-181 124,-273 201,-388 130,-195 281,-324 496,-424 58,-28 124,-58 147,-69 87,-41 129,-17 160,90 14,47 15,69 5,151 -24,201 -114,434 -270,698 -27,46 -59,114 -70,150 -29,98 -95,383 -131,567 -92,479 -117,538 -360,855 -36,47 -130,153 -210,235 -168,172 -190,201 -190,245 0,46 32,70 228,165 412,201 495,290 496,530 0,156 -46,274 -152,387 -99,105 -218,171 -400,224 -91,25 -100,26 -285,21 -163,-4 -203,-8 -262,-27 -57,-19 -94,-23 -200,-23 -205,-1 -342,43 -628,202 -31,17 -62,31 -69,31 -7,0 -41,-18 -76,-40 z m 1621,-608 c 51,-56 38,-135 -26,-165 -20,-10 -59,-17 -91,-17 -50,0 -56,2 -56,20 0,26 28,81 69,138 35,47 75,56 104,24 z"
         id="path14"
         inkscape:connector-curvature="0" />
      <path
         d="m 9582,3980 c -111,-16 -230,-81 -278,-153 -45,-69 -36,-146 34,-286 59,-117 197,-216 337,-241 135,-24 263,-88 285,-141 26,-61 -5,-196 -56,-247 -31,-31 -39,-34 -77,-29 -52,7 -92,50 -101,110 -10,60 -28,82 -93,113 -53,25 -70,28 -195,32 -76,2 -153,1 -172,-2 -50,-10 -196,-153 -230,-226 -39,-84 -36,-154 10,-244 75,-146 121,-182 285,-220 238,-56 496,-61 642,-12 143,48 277,129 389,234 83,79 131,149 159,236 20,60 21,73 10,118 -7,33 -27,72 -53,106 -53,69 -168,175 -238,221 -49,32 -204,111 -217,111 -17,0 -63,45 -63,61 0,25 6,24 76,-7 52,-23 62,-24 102,-14 41,10 170,95 200,133 25,30 26,89 2,120 -56,71 -232,161 -407,207 -86,24 -257,33 -351,20 z"
         id="path16"
         inkscape:connector-curvature="0" />
      <path
         d="m 8418,3890 c -20,-11 -81,-64 -135,-118 -116,-116 -136,-151 -248,-432 -43,-107 -88,-206 -99,-219 -29,-33 -59,-42 -113,-34 -73,10 -94,37 -169,218 -80,195 -157,344 -195,381 -37,35 -96,37 -191,5 -108,-36 -127,-57 -169,-186 -35,-106 -33,-233 5,-345 63,-188 196,-431 283,-518 38,-38 78,-65 140,-94 166,-76 241,-145 250,-232 7,-55 -7,-91 -88,-238 -33,-60 -71,-139 -85,-176 -70,-190 -137,-326 -233,-473 -34,-52 -89,-141 -123,-199 -41,-69 -89,-132 -139,-182 -116,-118 -163,-231 -164,-388 0,-85 3,-100 27,-141 89,-152 390,-295 496,-236 33,19 110,95 142,142 43,63 75,132 165,354 94,233 109,267 287,641 116,245 146,295 228,388 185,210 404,543 571,869 123,241 163,397 140,558 -27,196 -95,391 -159,460 -38,41 -178,156 -230,189 -52,33 -137,36 -194,6 z"
         id="path18"
         inkscape:connector-curvature="0" />
      <path
         d="m 6515,3759 c -100,-35 -158,-81 -235,-188 -116,-161 -214,-264 -331,-347 -77,-55 -109,-83 -145,-129 -77,-98 -110,-230 -93,-366 27,-220 230,-417 390,-379 54,13 130,73 156,123 27,52 174,191 250,236 40,24 95,50 122,58 85,25 100,12 249,-209 70,-105 140,-207 155,-227 37,-48 82,-71 137,-71 39,0 51,5 78,33 37,38 40,67 17,161 -40,160 -64,210 -151,312 -85,99 -246,310 -267,349 -22,43 -25,87 -18,340 5,187 -25,277 -106,311 -46,20 -138,17 -208,-7 z m -314,-709 c 45,-24 63,-108 31,-146 -38,-46 -81,-67 -129,-61 -83,9 -123,60 -88,113 18,28 130,104 152,104 8,0 23,-5 34,-10 z"
         id="path20"
         inkscape:connector-curvature="0" />
    </g>
  </g>
</svg>
