<?xml version="1.0" encoding="UTF-8" standalone="no"?>
<svg
   xmlns:dc="http://purl.org/dc/elements/1.1/"
   xmlns:cc="http://creativecommons.org/ns#"
   xmlns:rdf="http://www.w3.org/1999/02/22-rdf-syntax-ns#"
   xmlns:svg="http://www.w3.org/2000/svg"
   xmlns="http://www.w3.org/2000/svg"
   viewBox="0 0 384.00002 384"
   height="4in"
   width="4in"
   xml:space="preserve"
   id="svg2"
   version="1.1"><metadata
     id="metadata8"><rdf:RDF><cc:Work
         rdf:about=""><dc:format>image/svg+xml</dc:format><dc:type
           rdf:resource="http://purl.org/dc/dcmitype/StillImage" /><dc:title></dc:title></cc:Work></rdf:RDF></metadata><defs
     id="defs6"><clipPath
       id="clipPath44"
       clipPathUnits="userSpaceOnUse"><path
         id="path42"
         d="M 0,500 H 1024 V 0 H 0 Z" /></clipPath><clipPath
       id="clipPath56"
       clipPathUnits="userSpaceOnUse"><path
         id="path54"
         d="M 0,500 H 1024 V 0 H 0 Z" /></clipPath></defs><g
     transform="matrix(1.3333333,0,0,-1.3333333,0,384)"
     id="g10"><path
       id="path16"
       style="fill:#ffffff;fill-opacity:1;fill-rule:nonzero;stroke:none"
       d="m 0,479.562 h 1024 v 0.437 H 0 Z" /><path
       id="path18"
       style="fill:#ffffff;fill-opacity:1;fill-rule:nonzero;stroke:none"
       d="m 0,459.562 h 1024 v 0.437 H 0 Z" /><path
       id="path20"
       style="fill:#ffffff;fill-opacity:1;fill-rule:nonzero;stroke:none"
       d="m 491.782,0 h 0.437 v 500 h -0.437 z" /><path
       id="path22"
       style="fill:#ffffff;fill-opacity:1;fill-rule:nonzero;stroke:none"
       d="m 20,0 h 0.437 V 500 H 20 Z" /><path
       id="path24"
       style="fill:#ffffff;fill-opacity:1;fill-rule:nonzero;stroke:none"
       d="m 531.781,0 h 0.437 v 500 h -0.437 z" /><path
       id="path26"
       style="fill:#ffffff;fill-opacity:1;fill-rule:nonzero;stroke:none"
       d="M 1003.562,0 H 1004 v 500 h -0.438 z" /><path
       id="path28"
       style="fill:#ffffff;fill-opacity:1;fill-rule:nonzero;stroke:none"
       d="m 0,20 h 1024 v 0.437 H 0 Z" /><text
       id="text36"
       style="font-variant:normal;font-weight:normal;font-stretch:normal;font-size:10px;font-family:Helvetica;-inkscape-font-specification:Helvetica;writing-mode:lr-tb;fill:#ffffff;fill-opacity:1;fill-rule:nonzero;stroke:none"
       transform="matrix(1,0,0,-1,27.5005,465.9683)"><tspan
         id="tspan30"
         y="0"
         x="0 5.8600001 11.437 16.57 22.184 27.860001 33.502998 39.106998 44.106998 46.887001 51.040001 54.830002 58.16 60.939999 66.542999 72.182999 77.822998">Facebook “f” Logo</tspan><tspan
         id="tspan32"
         y="0"
         x="408.78 415.98999 424.34601 431.08099 437.75101 440.53101 443.311 446.091 448.83899 454.45099">CMYK / .ai</tspan><tspan
         id="tspan34"
         y="0"
         x="512.01001 517.87 523.44702 528.58002 534.19397 539.87 545.513 551.117 556.117 558.89697 563.04999 566.84003 570.16998 572.95001 578.55298 584.19299 589.83301 920.78998 928 936.35602 943.091 949.76099 952.54102 955.32098 958.10101 960.849 966.461">Facebook “f” LogoCMYK / .ai</tspan></text>
<g
       transform="translate(-112.9998,-110.0002)"
       id="g50"><g
         clip-path="url(#clipPath56)"
         id="g52"><g
           transform="translate(375.7163,120.5527)"
           id="g58"><path
             id="path60"
             style="fill:#3c5a99;fill-opacity:1;fill-rule:nonzero;stroke:none"
             d="m 0,0 c 8.134,0 14.73,6.596 14.73,14.73 v 237.434 c 0,8.137 -6.596,14.731 -14.73,14.731 h -237.433 c -8.137,0 -14.73,-6.594 -14.73,-14.731 V 14.73 c 0,-8.134 6.593,-14.73 14.73,-14.73 z" /></g><g
           transform="translate(307.7046,120.5527)"
           id="g62"><path
             id="path64"
             style="fill:#ffffff;fill-opacity:1;fill-rule:nonzero;stroke:none"
             d="m 0,0 v 103.355 h 34.693 l 5.194,40.28 H 0 v 25.717 c 0,11.662 3.238,19.609 19.962,19.609 l 21.33,0.01 v 36.026 c -3.69,0.49 -16.351,1.587 -31.081,1.587 -30.753,0 -51.806,-18.771 -51.806,-53.244 v -29.705 h -34.781 v -40.28 h 34.781 L -41.595,0 Z" /></g></g></g></g></svg>